<svg width="32" height="32" viewBox="0 0 32 32" fill="none" xmlns="http://www.w3.org/2000/svg">
<rect x="0.5" y="0.5" width="31" height="31" rx="6.5" fill="white" stroke="#F2F2F2"/>
<path fill-rule="evenodd" clip-rule="evenodd" d="M24.8865 11.8273L24.8854 11.8249C24.5578 11.0722 24.0859 10.3911 23.4968 9.81921C22.9109 9.24951 22.2211 8.7974 21.4651 8.48666C20.6815 8.16365 19.8415 7.99837 18.9938 8.00001C18.0237 8.00036 17.0698 8.2167 16.2008 8.63155C15.3312 8.21637 14.3764 8.00001 13.4055 8.00001C12.5565 8.00001 11.7242 8.16217 10.9376 8.48621C10.1797 8.79771 9.49359 9.24736 8.90599 9.81807C8.31528 10.3903 7.84253 11.0727 7.51525 11.8272L7.51518 11.8273C7.17498 12.6117 7 13.4498 7 14.3084C7 15.1352 7.17022 15.9527 7.47219 16.7362L7.47258 16.7372C7.7236 17.3874 8.06928 18.0265 8.48421 18.6411L8.48488 18.6421C9.14133 19.6131 10.0068 20.5734 11.0226 21.5039C12.6084 22.957 14.1727 23.9817 14.4437 24.1528L14.8387 24.4042L14.8426 24.4067C15.6709 24.9311 16.7291 24.9311 17.5574 24.4067L17.5613 24.4042L17.9559 24.1531L17.9563 24.1528C18.0644 24.0841 19.7047 23.035 21.3766 21.5046L21.3772 21.5041C22.3931 20.5735 23.2586 19.6132 23.9151 18.6421L23.9158 18.6411C24.3279 18.0307 24.6773 17.3903 24.9287 16.7339C25.2297 15.9522 25.3996 15.1365 25.4 14.3116C25.4021 13.4499 25.2263 12.6109 24.8865 11.8273ZM23.0516 12.6231C22.8282 12.1098 22.506 11.6446 22.1032 11.2537C21.7 10.8615 21.2247 10.5499 20.703 10.3358C20.1621 10.1128 19.5819 9.99867 18.9961 10C18.1744 10 17.3726 10.2233 16.6759 10.645C16.5092 10.7459 16.3508 10.8567 16.2008 10.9775C16.0508 10.8567 15.8925 10.7459 15.7258 10.645C15.029 10.2233 14.2273 10 13.4055 10C12.8138 10 12.2404 10.1125 11.6986 10.3358C11.1752 10.5508 10.7035 10.86 10.2985 11.2537C9.8951 11.6442 9.57286 12.1095 9.35004 12.6231C9.11835 13.1573 9 13.7246 9 14.3084C9 14.8592 9.11335 15.4331 9.33837 16.0169C9.52673 16.5048 9.79676 17.0109 10.1418 17.522C10.6885 18.3307 11.4403 19.1742 12.3737 20.0293C13.9206 21.4467 15.4524 22.4258 15.5174 22.4655L15.9125 22.7169C16.0875 22.8277 16.3125 22.8277 16.4875 22.7169L16.8826 22.4655C16.9476 22.4241 18.4778 21.4467 20.0263 20.0293C20.9597 19.1742 21.7115 18.3307 22.2582 17.522C22.6032 17.0109 22.8749 16.5048 23.0616 16.0169C23.2866 15.4331 23.4 14.8592 23.4 14.3084C23.4016 13.7246 23.2833 13.1573 23.0516 12.6231Z" fill="#D9D9D9"/>
</svg>
