<svg width="32" height="32" viewBox="0 0 32 32" fill="none" xmlns="http://www.w3.org/2000/svg">
<rect width="32" height="32" rx="7" fill="#FEF0F0"/>
<path d="M23.0516 12.6231C22.8282 12.1098 22.506 11.6446 22.1032 11.2537C21.7 10.8615 21.2247 10.5499 20.703 10.3358C20.1621 10.1128 19.5819 9.99867 18.9961 10C18.1744 10 17.3726 10.2233 16.6759 10.645C16.5092 10.7459 16.3508 10.8567 16.2008 10.9775C16.0508 10.8567 15.8925 10.7459 15.7258 10.645C15.029 10.2233 14.2273 10 13.4055 10C12.8138 10 12.2404 10.1125 11.6986 10.3358C11.1752 10.5508 10.7035 10.86 10.2985 11.2537C9.8951 11.6442 9.57286 12.1095 9.35004 12.6231C9.11835 13.1573 9 13.7246 9 14.3084C9 14.8592 9.11335 15.4331 9.33837 16.0169C9.52673 16.5048 9.79676 17.0109 10.1418 17.522C10.6885 18.3307 11.4403 19.1742 12.3737 20.0293C13.9206 21.4467 15.4524 22.4258 15.5174 22.4655L15.9125 22.7169C16.0875 22.8277 16.3125 22.8277 16.4875 22.7169L16.8826 22.4655C16.9476 22.4242 18.4778 21.4467 20.0263 20.0293C20.9597 19.1742 21.7115 18.3307 22.2582 17.522C22.6032 17.0109 22.8749 16.5048 23.0616 16.0169C23.2866 15.4331 23.4 14.8592 23.4 14.3084C23.4017 13.7246 23.2833 13.1573 23.0516 12.6231V12.6231Z" fill="#FF8585"/>
</svg>
