<svg width="32" height="32" viewBox="0 0 32 32" fill="none" xmlns="http://www.w3.org/2000/svg">
<rect x="0.5" y="0.5" width="31" height="31" rx="6.5" fill="white" stroke="#F8F8F8"/>
<path d="M7.96594 11.8252L7.96597 11.8251C8.24102 11.1911 8.63852 10.6172 9.13556 10.1358C9.63189 9.65367 10.2108 9.27421 10.8514 9.01096C11.5156 8.7373 12.2184 8.59999 12.9388 8.59999C13.9252 8.59999 14.8903 8.8636 15.7341 9.3639C16.5777 8.86379 17.5423 8.60019 18.5283 8.59999M7.96594 11.8252L11.2316 20.3667C12.7902 21.7949 14.3306 22.7942 14.5162 22.9106L14.9089 23.1605L14.9108 23.1618C15.4125 23.4794 16.0541 23.4794 16.5558 23.1618L16.5577 23.1605L16.9526 22.9093C16.9526 22.9092 16.9527 22.9092 16.9528 22.9091C17.0397 22.8538 18.6247 21.8406 20.2348 20.3669L20.2351 20.3667C21.2097 19.4738 22.0184 18.5719 22.62 17.682L22.6203 17.6815C22.9989 17.1208 23.3094 16.5476 23.5285 15.9754C23.7915 15.2926 23.9331 14.5978 23.9333 13.91M7.96594 11.8252C7.67999 12.4845 7.53333 13.1872 7.53333 13.9084C7.53333 14.5972 7.67511 15.2929 7.93861 15.9765L7.9388 15.977M7.96594 11.8252L7.9388 15.977M18.5283 8.59999C19.245 8.5985 19.9551 8.7382 20.6174 9.01118C21.2564 9.2737 21.8391 9.65571 22.3337 10.1368C22.8295 10.6181 23.2264 11.1911 23.5018 11.824L22.5851 12.223L23.5024 11.8252C23.7881 12.4841 23.9352 13.1872 23.9333 13.91M18.5283 8.59999C18.5287 8.59999 18.5291 8.59999 18.5295 8.59999V9.59978L18.5272 8.59999C18.5276 8.59999 18.528 8.59999 18.5283 8.59999ZM23.9333 13.91C23.9333 13.9104 23.9333 13.9108 23.9333 13.9113L22.9333 13.9084H23.9333C23.9333 13.9089 23.9333 13.9094 23.9333 13.91ZM7.9388 15.977C8.15849 16.5461 8.46634 17.1187 8.84633 17.6815L8.84666 17.682M7.9388 15.977L8.84666 17.682M8.84666 17.682C9.44825 18.5719 10.2569 19.4738 11.2315 20.3666L8.84666 17.682Z" stroke="#ECECEC" stroke-width="2"/>
</svg>
