<svg width="20" height="20" viewBox="0 0 20 20" fill="none" xmlns="http://www.w3.org/2000/svg">
<path d="M14.4731 1C16.0343 1 17.3458 1.5265 18.4075 2.57951C19.4692 3.63251 20 4.91779 20 6.43536C20 7.17866 19.8439 7.9297 19.5316 8.68848C19.2194 9.44726 18.8759 10.1209 18.5012 10.7093C18.1265 11.2978 17.4941 12.0565 16.6042 12.9857C15.7143 13.9148 14.9649 14.6658 14.356 15.2388C13.7471 15.8117 12.7713 16.6867 11.4286 17.8636L9.97658 19.1643L8.52459 17.91C7.21311 16.7021 6.24512 15.8117 5.62061 15.2388C4.9961 14.6658 4.23888 13.9148 3.34895 12.9857C2.45902 12.0565 1.8267 11.2978 1.45199 10.7093C1.07728 10.1209 0.741608 9.44726 0.444965 8.68848C0.148322 7.9297 0 7.17866 0 6.43536C0 4.91779 0.530835 3.63251 1.59251 2.57951C2.65418 1.5265 3.95004 1 5.48009 1C7.29118 1 8.79001 1.69684 9.97658 3.09052C11.1632 1.69684 12.662 1 14.4731 1ZM10.0703 16.4234C11.6003 15.0607 12.7166 14.0464 13.4192 13.3805C14.1218 12.7147 14.8946 11.9172 15.7377 10.9881C16.5808 10.0589 17.1663 9.24595 17.4941 8.54911C17.822 7.85227 17.9859 7.14769 17.9859 6.43536C17.9859 5.4443 17.6503 4.62357 16.9789 3.97319C16.3076 3.3228 15.4723 2.99761 14.4731 2.99761C13.7237 2.99761 13.0133 3.21441 12.3419 3.648C11.6706 4.08159 11.1944 4.63906 10.9133 5.32041H9.03981C8.79001 4.63906 8.32943 4.08159 7.65808 3.648C6.98673 3.21441 6.26073 2.99761 5.48009 2.99761C4.48087 2.99761 3.6534 3.3228 2.99766 3.97319C2.34192 4.62357 2.01405 5.4443 2.01405 6.43536C2.01405 7.14769 2.17018 7.85227 2.48244 8.54911C2.79469 9.24595 3.38017 10.0589 4.23888 10.9881C5.09758 11.9172 5.87822 12.7147 6.5808 13.3805C7.28337 14.0464 8.38407 15.0607 9.8829 16.4234L9.97658 16.5163L10.0703 16.4234Z" fill="#9B9B9B"/>
</svg>
